<mxfile host="app.diagrams.net" modified="2021-10-23T03:54:38.624Z" agent="5.0 (Windows NT 10.0; Win64; x64) AppleWebKit/537.36 (KHTML, like Gecko) Chrome/95.0.4638.54 Safari/537.36" etag="MroqcPnxgZbaBgpfftb5" version="15.2.7" type="github">
  <diagram id="piDafpqhtRUU5qUU-vj8" name="Page-1">
    <mxGraphModel dx="2249" dy="762" grid="1" gridSize="10" guides="1" tooltips="1" connect="1" arrows="1" fold="1" page="1" pageScale="1" pageWidth="827" pageHeight="1169" math="0" shadow="0">
      <root>
        <mxCell id="0" />
        <mxCell id="1" parent="0" />
        <mxCell id="mGO5uyIto1JREqkk8PXR-8" value="&lt;font style=&quot;font-size: 20px&quot;&gt;粤治慧平台&lt;/font&gt;" style="rounded=1;whiteSpace=wrap;html=1;fillColor=#dae8fc;strokeColor=#6c8ebf;" parent="1" vertex="1">
          <mxGeometry x="300" y="330" width="450" height="200" as="geometry" />
        </mxCell>
        <mxCell id="mGO5uyIto1JREqkk8PXR-10" value="&lt;font style=&quot;font-size: 20px&quot;&gt;广东省统一认证服务&lt;/font&gt;" style="rounded=1;whiteSpace=wrap;html=1;fillColor=#f5f5f5;strokeColor=#666666;fontColor=#333333;" parent="1" vertex="1">
          <mxGeometry x="310" y="650" width="445" height="160" as="geometry" />
        </mxCell>
        <mxCell id="mGO5uyIto1JREqkk8PXR-14" value="厅局专题系统" style="rounded=0;whiteSpace=wrap;html=1;fillColor=#fff2cc;strokeColor=#d6b656;" parent="1" vertex="1">
          <mxGeometry x="-30" y="363.75" width="180" height="132.5" as="geometry" />
        </mxCell>
        <mxCell id="mGO5uyIto1JREqkk8PXR-22" value="" style="shape=flexArrow;endArrow=classic;startArrow=classic;html=1;startWidth=38;startSize=8;width=41;endWidth=38;endSize=8;" parent="1" edge="1">
          <mxGeometry width="100" height="100" relative="1" as="geometry">
            <mxPoint x="300" y="435.75" as="sourcePoint" />
            <mxPoint x="150" y="435.75" as="targetPoint" />
          </mxGeometry>
        </mxCell>
        <mxCell id="mGO5uyIto1JREqkk8PXR-23" value="单点登录" style="edgeLabel;html=1;align=center;verticalAlign=middle;resizable=0;points=[];" parent="mGO5uyIto1JREqkk8PXR-22" vertex="1" connectable="0">
          <mxGeometry x="-0.0907" y="-10" relative="1" as="geometry">
            <mxPoint x="-9" y="10" as="offset" />
          </mxGeometry>
        </mxCell>
        <mxCell id="mGO5uyIto1JREqkk8PXR-24" value="" style="shape=flexArrow;endArrow=classic;startArrow=classic;html=1;startWidth=38;startSize=8;width=41;endWidth=38;endSize=8;exitX=0.486;exitY=-0.014;exitDx=0;exitDy=0;exitPerimeter=0;" parent="1" edge="1">
          <mxGeometry width="100" height="100" relative="1" as="geometry">
            <mxPoint x="526.7099999999999" y="649.02" as="sourcePoint" />
            <mxPoint x="527.87" y="530" as="targetPoint" />
            <Array as="points">
              <mxPoint x="528.29" y="589.02" />
            </Array>
          </mxGeometry>
        </mxCell>
        <mxCell id="mGO5uyIto1JREqkk8PXR-27" value="统一认证" style="edgeLabel;html=1;align=center;verticalAlign=middle;resizable=0;points=[];" parent="mGO5uyIto1JREqkk8PXR-24" vertex="1" connectable="0">
          <mxGeometry x="0.09" y="14" relative="1" as="geometry">
            <mxPoint x="14" y="5" as="offset" />
          </mxGeometry>
        </mxCell>
        <mxCell id="n5BYF4jXEeQmePAePbaI-1" value="公众侧认证" style="rounded=1;whiteSpace=wrap;html=1;fillColor=#d5e8d4;strokeColor=#82b366;" vertex="1" parent="1">
          <mxGeometry x="370" y="660" width="96" height="40" as="geometry" />
        </mxCell>
        <mxCell id="n5BYF4jXEeQmePAePbaI-2" value="政务侧认证" style="rounded=1;whiteSpace=wrap;html=1;fillColor=#ffe6cc;strokeColor=#d79b00;" vertex="1" parent="1">
          <mxGeometry x="600" y="660" width="96" height="40" as="geometry" />
        </mxCell>
        <mxCell id="n5BYF4jXEeQmePAePbaI-4" value="地市专题系统" style="rounded=0;whiteSpace=wrap;html=1;fillColor=#fff2cc;strokeColor=#d6b656;" vertex="1" parent="1">
          <mxGeometry x="900" y="370" width="180" height="132.5" as="geometry" />
        </mxCell>
        <mxCell id="n5BYF4jXEeQmePAePbaI-5" value="" style="shape=flexArrow;endArrow=classic;startArrow=classic;html=1;startWidth=38;startSize=8;width=41;endWidth=38;endSize=8;" edge="1" parent="1">
          <mxGeometry width="100" height="100" relative="1" as="geometry">
            <mxPoint x="900" y="435.75" as="sourcePoint" />
            <mxPoint x="750" y="435.75" as="targetPoint" />
          </mxGeometry>
        </mxCell>
        <mxCell id="n5BYF4jXEeQmePAePbaI-6" value="单点登录" style="edgeLabel;html=1;align=center;verticalAlign=middle;resizable=0;points=[];" vertex="1" connectable="0" parent="n5BYF4jXEeQmePAePbaI-5">
          <mxGeometry x="-0.0907" y="-10" relative="1" as="geometry">
            <mxPoint x="-9" y="10" as="offset" />
          </mxGeometry>
        </mxCell>
      </root>
    </mxGraphModel>
  </diagram>
</mxfile>
